<?xml version="1.0" encoding="UTF-8" standalone="no"?>
<!-- Generator: Adobe Illustrator 26.5.0, SVG Export Plug-In . SVG Version: 6.00 Build 0)  -->

<svg
   version="1.1"
   id="Layer_1"
   x="0px"
   y="0px"
   viewBox="0 0 500 500"
   style="enable-background:new 0 0 500 500;"
   xml:space="preserve"
   sodipodi:docname="CattailLogo.svg"
   inkscape:version="1.3.1 (91b66b0783, 2023-11-16)"
   xmlns:inkscape="http://www.inkscape.org/namespaces/inkscape"
   xmlns:sodipodi="http://sodipodi.sourceforge.net/DTD/sodipodi-0.dtd"
   xmlns="http://www.w3.org/2000/svg"
   xmlns:svg="http://www.w3.org/2000/svg"><defs
   id="defs2" /><sodipodi:namedview
   id="namedview2"
   pagecolor="#ffffff"
   bordercolor="#000000"
   borderopacity="0.25"
   inkscape:showpageshadow="2"
   inkscape:pageopacity="0.0"
   inkscape:pagecheckerboard="0"
   inkscape:deskcolor="#d1d1d1"
   inkscape:zoom="2.346"
   inkscape:cx="238.06479"
   inkscape:cy="250.42626"
   inkscape:window-width="2560"
   inkscape:window-height="1369"
   inkscape:window-x="1072"
   inkscape:window-y="340"
   inkscape:window-maximized="1"
   inkscape:current-layer="Layer_1" />
<style
   type="text/css"
   id="style1">
	.st0{fill:#FFFFFF;}
	.st1{stroke:#FFFFFF;stroke-miterlimit:10;}
	.st2{fill:#FFFFFF;stroke:#000000;stroke-miterlimit:10;}
</style>

<path
   id="polyline1"
   class="st1"
   d="M 227.34961 57.550781 L 223.40039 57.560547 L 219.51953 58.279297 L 215.83984 59.710938 L 212.48047 61.789062 L 209.56055 64.449219 L 207.17969 67.599609 L 205.41992 71.140625 L 204.33984 74.929688 L 203.9707 78.869141 L 203.98047 228.66016 L 204.30078 232.31055 L 205.23047 235.84961 L 206.75 239.17969 L 208.81055 242.19922 L 211.35938 244.82031 L 214.31055 246.98047 L 217.59961 248.59961 L 221.09961 249.63086 L 221.10938 330.09961 L 212.07031 321.66992 L 202.58008 313.75 L 192.66016 306.35938 L 182.33984 299.5293 L 171.67969 293.26953 L 160.67969 287.60938 L 149.39062 282.57031 L 137.83984 278.15039 L 126.07031 274.36914 L 114.10938 271.25 L 125.08008 279.60938 L 135.60938 288.5293 L 145.66016 297.98047 L 155.2207 307.93945 L 164.25 318.36914 L 172.73047 329.25977 L 180.63086 340.57031 L 187.93945 352.26953 L 194.64062 364.33008 L 200.71094 376.73047 L 206.13086 389.41992 L 210.88086 402.36914 L 214.9707 415.55078 L 218.36914 428.91992 L 221.08008 442.44922 L 229.76953 442.43945 L 227.06055 428.55078 L 223.65039 414.82031 L 219.55078 401.2793 L 214.75 387.96094 L 209.2793 374.91016 L 203.15039 362.15039 L 196.36914 349.73047 L 188.96094 337.66992 L 180.94922 326 L 172.34961 314.75977 L 163.17969 303.98047 L 153.4707 293.67969 L 164.58984 299.16992 L 175.39062 305.28906 L 185.81055 312.01953 L 195.83008 319.33984 L 205.41016 327.2207 L 214.5293 335.63086 L 223.15039 344.56055 L 231.24023 353.94922 L 238.7793 363.80078 L 245.74023 374.07031 L 252.09961 384.7207 L 257.83984 395.7207 L 262.93945 407.01953 L 267.38086 418.60938 L 271.16016 430.41992 L 274.25977 442.43945 L 283.28906 442.43945 L 287.85938 431.55078 L 293.08008 420.96094 L 298.91992 410.68945 L 305.35938 400.7793 L 312.38086 391.2793 L 319.93945 382.21094 L 328.03906 373.59961 L 336.61914 365.49023 L 345.67969 357.91016 L 355.16992 350.86914 L 365.05078 344.40039 L 375.31055 338.5293 L 385.89062 333.28906 L 373.50977 335.08984 L 361.25 337.66016 L 349.18945 341 L 337.34961 345.07031 L 325.78906 349.86914 L 314.55078 355.38086 L 303.66992 361.57031 L 293.19922 368.42969 L 283.16992 375.92969 L 283.16992 335.2207 L 286.67969 334.18945 L 289.96094 332.57031 L 292.91992 330.41016 L 295.4707 327.78906 L 297.5293 324.76953 L 299.05078 321.43945 L 299.98047 317.90039 L 300.28906 314.25 L 300.26953 164.46094 L 299.91016 160.51953 L 298.83008 156.7207 L 297.07031 153.18945 L 294.68945 150.03906 L 291.76953 147.38086 L 288.41016 145.30078 L 284.73047 143.86914 L 280.84961 143.15039 L 276.90039 143.15039 L 273.01953 143.86914 L 269.33984 145.30078 L 265.98047 147.38086 L 263.06055 150.03906 L 260.67969 153.18945 L 258.91992 156.7207 L 257.83984 160.51953 L 257.4707 164.46094 L 257.49023 314.25 L 257.81055 317.90039 L 258.74023 321.43945 L 260.25 324.76953 L 262.32031 327.78906 L 264.86914 330.41016 L 267.82031 332.57031 L 271.10938 334.18945 L 274.60938 335.2207 L 274.60938 383.16016 L 265.48047 391.84961 L 259.53906 380.49023 L 252.98047 369.5 L 245.78906 358.90039 L 238.01953 348.7207 L 229.66992 339 L 229.66016 249.61914 L 233.16992 248.58984 L 236.46094 246.9707 L 239.41016 244.81055 L 241.96094 242.18945 L 244.01953 239.16992 L 245.53906 235.83984 L 246.4707 232.30078 L 246.7793 228.65039 L 246.76953 78.859375 L 246.41016 74.919922 L 245.33008 71.130859 L 243.57031 67.589844 L 241.18945 64.439453 L 238.26953 61.779297 L 234.91016 59.699219 L 231.23047 58.269531 L 227.34961 57.550781 z M 335.83984 354.85938 L 327.06055 362.63086 L 318.73047 370.88086 L 310.88086 379.58984 L 303.53906 388.7207 L 296.7207 398.25977 L 290.44922 408.16016 L 284.75 418.41016 L 279.64062 428.96094 L 276.64062 419.21094 L 273.19922 409.60938 L 269.32031 400.16992 L 277.57031 392.03906 L 286.28906 384.41992 L 295.44922 377.33984 L 305.0293 370.82031 L 314.9707 364.89062 L 325.25977 359.56055 L 335.83984 354.85938 z " />

</svg>
